<svg width="58" height="64" viewBox="0 0 58 64" fill="none" xmlns="http://www.w3.org/2000/svg">
<path d="M41.8125 25.8125V13.5664C41.8125 10.8314 40.4626 8.20834 38.0598 6.27437C35.657 4.3404 32.3981 3.25391 29 3.25391C25.6019 3.25391 22.343 4.3404 19.9402 6.27437C17.5374 8.20834 16.1875 10.8314 16.1875 13.5664V25.8125" stroke="white" stroke-width="5" stroke-linecap="round" stroke-linejoin="round"/>
<path d="M46.9375 25.8125H11.0625C6.81681 25.8125 3.375 28.5827 3.375 32V54.6875C3.375 58.1048 6.81681 60.875 11.0625 60.875H46.9375C51.1832 60.875 54.625 58.1048 54.625 54.6875V32C54.625 28.5827 51.1832 25.8125 46.9375 25.8125Z" stroke="white" stroke-width="5" stroke-linecap="round" stroke-linejoin="round"/>
</svg>
